<mxfile host="app.diagrams.net" modified="2023-04-20T07:11:18.678Z" agent="Mozilla/5.0 (Macintosh; Intel Mac OS X 10_15_7) AppleWebKit/537.36 (KHTML, like Gecko) Chrome/112.0.0.0 Safari/537.36" etag="EeRoF-rJTOg4gSHbYXaS" version="21.1.7" type="device" pages="2">
  <diagram id="Y38iuLWcy8xIc2J8B8do" name="Page-2">
    <mxGraphModel dx="3189" dy="1821" grid="1" gridSize="10" guides="1" tooltips="1" connect="1" arrows="1" fold="1" page="1" pageScale="1" pageWidth="850" pageHeight="1100" math="0" shadow="0">
      <root>
        <mxCell id="0" />
        <mxCell id="1" parent="0" />
        <mxCell id="UEooq0C82jELmoPccnf_-1" value="&lt;b&gt;&lt;font style=&quot;font-size: 18px;&quot;&gt;Gym booking system&lt;/font&gt;&lt;/b&gt;" style="text;strokeColor=none;align=center;fillColor=none;html=1;verticalAlign=middle;whiteSpace=wrap;rounded=0;" vertex="1" parent="1">
          <mxGeometry x="-1490" y="-1090" width="270" height="80" as="geometry" />
        </mxCell>
        <mxCell id="UEooq0C82jELmoPccnf_-2" value="&lt;font style=&quot;font-size: 14px;&quot;&gt;This is a gym booking system, which helps coaches to handle their classes and members can organize their training through it. &lt;br&gt;It stores the coaches, members, classes, etc.&lt;br&gt;&lt;br&gt;&lt;b&gt;&lt;u&gt;Coaches&lt;/u&gt;&lt;/b&gt; have &lt;b&gt;admin&lt;/b&gt; access, with that, they can &lt;b&gt;add&lt;/b&gt; or &lt;b&gt;delete&lt;/b&gt; classes in the schedule. &lt;br&gt;The application will send a &lt;b&gt;notice&lt;/b&gt; if the class reservation was successful, or not. &lt;br&gt;It doesn&#39;t allow the reservation if the venue is already booked for given &lt;b&gt;time&lt;/b&gt;, or the venue doesn&#39;t&amp;nbsp;&lt;br&gt;have the necessary &lt;b&gt;tool&lt;/b&gt;. &lt;br&gt;The tools are &lt;b&gt;limited&lt;/b&gt;, so it also limits the reservations.&lt;br&gt;&lt;br&gt;&lt;b&gt;&lt;u&gt;Members&lt;/u&gt;&lt;/b&gt; can &lt;b&gt;apply&lt;/b&gt; for a class, or &lt;b&gt;delete&lt;/b&gt; their applications. &lt;br&gt;They can also &lt;b&gt;buy&lt;/b&gt; new membership pass through the app.&lt;br&gt;The application will send an error, if the member has no &lt;b&gt;valid&lt;/b&gt; membership and &lt;br&gt;needs to &lt;b&gt;register&lt;/b&gt; or &lt;b&gt;renew&lt;/b&gt; the current one. &lt;br&gt;Also if the class&amp;nbsp;is already &lt;b&gt;full&lt;/b&gt;.&lt;br&gt;Members have no &lt;b&gt;right&lt;/b&gt; to modify the classes, only their own application.&lt;br&gt;&lt;/font&gt;" style="text;html=1;align=left;verticalAlign=middle;resizable=0;points=[];autosize=1;strokeColor=none;fillColor=none;" vertex="1" parent="1">
          <mxGeometry x="-1680" y="-1035" width="810" height="270" as="geometry" />
        </mxCell>
      </root>
    </mxGraphModel>
  </diagram>
  <diagram name="Page-1" id="7g4r9Hnljy66WRjG3Yry">
    <mxGraphModel dx="1055" dy="515" grid="1" gridSize="10" guides="1" tooltips="1" connect="1" arrows="1" fold="1" page="1" pageScale="1" pageWidth="850" pageHeight="1100" math="0" shadow="0">
      <root>
        <mxCell id="0" />
        <mxCell id="1" parent="0" />
        <mxCell id="A31uFJUMOwdGZLYOwl7o-16" value="TRX" style="swimlane;fontStyle=1;align=center;verticalAlign=top;childLayout=stackLayout;horizontal=1;startSize=26;horizontalStack=0;resizeParent=1;resizeParentMax=0;resizeLast=0;collapsible=1;marginBottom=0;whiteSpace=wrap;html=1;" vertex="1" parent="1">
          <mxGeometry x="200" y="220" width="160" height="86" as="geometry" />
        </mxCell>
        <mxCell id="A31uFJUMOwdGZLYOwl7o-17" value="+ field: type" style="text;strokeColor=none;fillColor=none;align=left;verticalAlign=top;spacingLeft=4;spacingRight=4;overflow=hidden;rotatable=0;points=[[0,0.5],[1,0.5]];portConstraint=eastwest;whiteSpace=wrap;html=1;" vertex="1" parent="A31uFJUMOwdGZLYOwl7o-16">
          <mxGeometry y="26" width="160" height="26" as="geometry" />
        </mxCell>
        <mxCell id="A31uFJUMOwdGZLYOwl7o-18" value="" style="line;strokeWidth=1;fillColor=none;align=left;verticalAlign=middle;spacingTop=-1;spacingLeft=3;spacingRight=3;rotatable=0;labelPosition=right;points=[];portConstraint=eastwest;strokeColor=inherit;" vertex="1" parent="A31uFJUMOwdGZLYOwl7o-16">
          <mxGeometry y="52" width="160" height="8" as="geometry" />
        </mxCell>
        <mxCell id="A31uFJUMOwdGZLYOwl7o-19" value="+ method(type): type" style="text;strokeColor=none;fillColor=none;align=left;verticalAlign=top;spacingLeft=4;spacingRight=4;overflow=hidden;rotatable=0;points=[[0,0.5],[1,0.5]];portConstraint=eastwest;whiteSpace=wrap;html=1;" vertex="1" parent="A31uFJUMOwdGZLYOwl7o-16">
          <mxGeometry y="60" width="160" height="26" as="geometry" />
        </mxCell>
        <mxCell id="A31uFJUMOwdGZLYOwl7o-20" value="Spinning" style="swimlane;fontStyle=1;align=center;verticalAlign=top;childLayout=stackLayout;horizontal=1;startSize=26;horizontalStack=0;resizeParent=1;resizeParentMax=0;resizeLast=0;collapsible=1;marginBottom=0;whiteSpace=wrap;html=1;" vertex="1" parent="1">
          <mxGeometry x="370" y="220" width="160" height="86" as="geometry" />
        </mxCell>
        <mxCell id="A31uFJUMOwdGZLYOwl7o-21" value="+ field: type" style="text;strokeColor=none;fillColor=none;align=left;verticalAlign=top;spacingLeft=4;spacingRight=4;overflow=hidden;rotatable=0;points=[[0,0.5],[1,0.5]];portConstraint=eastwest;whiteSpace=wrap;html=1;" vertex="1" parent="A31uFJUMOwdGZLYOwl7o-20">
          <mxGeometry y="26" width="160" height="26" as="geometry" />
        </mxCell>
        <mxCell id="A31uFJUMOwdGZLYOwl7o-22" value="" style="line;strokeWidth=1;fillColor=none;align=left;verticalAlign=middle;spacingTop=-1;spacingLeft=3;spacingRight=3;rotatable=0;labelPosition=right;points=[];portConstraint=eastwest;strokeColor=inherit;" vertex="1" parent="A31uFJUMOwdGZLYOwl7o-20">
          <mxGeometry y="52" width="160" height="8" as="geometry" />
        </mxCell>
        <mxCell id="A31uFJUMOwdGZLYOwl7o-23" value="+ method(type): type" style="text;strokeColor=none;fillColor=none;align=left;verticalAlign=top;spacingLeft=4;spacingRight=4;overflow=hidden;rotatable=0;points=[[0,0.5],[1,0.5]];portConstraint=eastwest;whiteSpace=wrap;html=1;" vertex="1" parent="A31uFJUMOwdGZLYOwl7o-20">
          <mxGeometry y="60" width="160" height="26" as="geometry" />
        </mxCell>
        <mxCell id="A31uFJUMOwdGZLYOwl7o-24" value="&lt;p style=&quot;margin:0px;margin-top:4px;text-align:center;&quot;&gt;&lt;i&gt;&amp;lt;&amp;lt;Abstract&amp;gt;&amp;gt;&lt;/i&gt;&lt;/p&gt;&lt;p style=&quot;margin:0px;margin-top:4px;text-align:center;&quot;&gt;&lt;i&gt;&lt;b&gt;Sport&lt;/b&gt;&lt;/i&gt;&lt;br&gt;&lt;/p&gt;&lt;p style=&quot;margin:0px;margin-left:4px;&quot;&gt;+ ID: long&lt;br style=&quot;border-color: var(--border-color);&quot;&gt;+ instructor: Coach&lt;br style=&quot;border-color: var(--border-color);&quot;&gt;+ duration: int&lt;br style=&quot;border-color: var(--border-color);&quot;&gt;+ venue: Venue&lt;br style=&quot;border-color: var(--border-color);&quot;&gt;+ isToolNeeded: boolean&lt;br&gt;&lt;/p&gt;&lt;hr size=&quot;1&quot;&gt;&lt;p style=&quot;margin:0px;margin-left:4px;&quot;&gt;+ method1(Type): Type&lt;br&gt;+ method2(Type, Type): Type&lt;/p&gt;" style="verticalAlign=top;align=left;overflow=fill;fontSize=12;fontFamily=Helvetica;html=1;whiteSpace=wrap;" vertex="1" parent="1">
          <mxGeometry x="185" y="10" width="190" height="180" as="geometry" />
        </mxCell>
        <mxCell id="A31uFJUMOwdGZLYOwl7o-27" value="" style="endArrow=block;dashed=1;endFill=0;endSize=12;html=1;rounded=0;exitX=0.644;exitY=-0.058;exitDx=0;exitDy=0;exitPerimeter=0;" edge="1" parent="1" source="A31uFJUMOwdGZLYOwl7o-20">
          <mxGeometry width="160" relative="1" as="geometry">
            <mxPoint x="375" y="80" as="sourcePoint" />
            <mxPoint x="380" y="90" as="targetPoint" />
          </mxGeometry>
        </mxCell>
        <mxCell id="A31uFJUMOwdGZLYOwl7o-28" value="" style="endArrow=block;dashed=1;endFill=0;endSize=12;html=1;rounded=0;exitX=0.394;exitY=-0.023;exitDx=0;exitDy=0;exitPerimeter=0;" edge="1" parent="1">
          <mxGeometry width="160" relative="1" as="geometry">
            <mxPoint x="83.04000000000008" y="216.73400000000004" as="sourcePoint" />
            <mxPoint x="180" y="90" as="targetPoint" />
          </mxGeometry>
        </mxCell>
        <mxCell id="A31uFJUMOwdGZLYOwl7o-29" value="" style="endArrow=block;dashed=1;endFill=0;endSize=12;html=1;rounded=0;exitX=0.5;exitY=0;exitDx=0;exitDy=0;entryX=0.5;entryY=1;entryDx=0;entryDy=0;" edge="1" parent="1" source="A31uFJUMOwdGZLYOwl7o-16" target="A31uFJUMOwdGZLYOwl7o-24">
          <mxGeometry width="160" relative="1" as="geometry">
            <mxPoint x="493" y="235" as="sourcePoint" />
            <mxPoint x="400" y="110" as="targetPoint" />
          </mxGeometry>
        </mxCell>
        <mxCell id="A31uFJUMOwdGZLYOwl7o-31" value="Yoga" style="swimlane;fontStyle=1;align=center;verticalAlign=top;childLayout=stackLayout;horizontal=1;startSize=26;horizontalStack=0;resizeParent=1;resizeParentMax=0;resizeLast=0;collapsible=1;marginBottom=0;whiteSpace=wrap;html=1;" vertex="1" parent="1">
          <mxGeometry x="30" y="220" width="160" height="86" as="geometry" />
        </mxCell>
        <mxCell id="A31uFJUMOwdGZLYOwl7o-32" value="+ field: type" style="text;strokeColor=none;fillColor=none;align=left;verticalAlign=top;spacingLeft=4;spacingRight=4;overflow=hidden;rotatable=0;points=[[0,0.5],[1,0.5]];portConstraint=eastwest;whiteSpace=wrap;html=1;" vertex="1" parent="A31uFJUMOwdGZLYOwl7o-31">
          <mxGeometry y="26" width="160" height="26" as="geometry" />
        </mxCell>
        <mxCell id="A31uFJUMOwdGZLYOwl7o-33" value="" style="line;strokeWidth=1;fillColor=none;align=left;verticalAlign=middle;spacingTop=-1;spacingLeft=3;spacingRight=3;rotatable=0;labelPosition=right;points=[];portConstraint=eastwest;strokeColor=inherit;" vertex="1" parent="A31uFJUMOwdGZLYOwl7o-31">
          <mxGeometry y="52" width="160" height="8" as="geometry" />
        </mxCell>
        <mxCell id="A31uFJUMOwdGZLYOwl7o-34" value="+ method(type): type" style="text;strokeColor=none;fillColor=none;align=left;verticalAlign=top;spacingLeft=4;spacingRight=4;overflow=hidden;rotatable=0;points=[[0,0.5],[1,0.5]];portConstraint=eastwest;whiteSpace=wrap;html=1;" vertex="1" parent="A31uFJUMOwdGZLYOwl7o-31">
          <mxGeometry y="60" width="160" height="26" as="geometry" />
        </mxCell>
        <mxCell id="A31uFJUMOwdGZLYOwl7o-35" value="Coach" style="swimlane;fontStyle=1;align=center;verticalAlign=top;childLayout=stackLayout;horizontal=1;startSize=26;horizontalStack=0;resizeParent=1;resizeParentMax=0;resizeLast=0;collapsible=1;marginBottom=0;whiteSpace=wrap;html=1;" vertex="1" parent="1">
          <mxGeometry x="30" y="440" width="160" height="140" as="geometry" />
        </mxCell>
        <mxCell id="A31uFJUMOwdGZLYOwl7o-36" value="+ ID: long&lt;br&gt;+ name: String&lt;br&gt;+ sports: List&amp;lt;Class&amp;gt;&lt;br&gt;" style="text;strokeColor=none;fillColor=none;align=left;verticalAlign=top;spacingLeft=4;spacingRight=4;overflow=hidden;rotatable=0;points=[[0,0.5],[1,0.5]];portConstraint=eastwest;whiteSpace=wrap;html=1;" vertex="1" parent="A31uFJUMOwdGZLYOwl7o-35">
          <mxGeometry y="26" width="160" height="74" as="geometry" />
        </mxCell>
        <mxCell id="A31uFJUMOwdGZLYOwl7o-37" value="" style="line;strokeWidth=1;fillColor=none;align=left;verticalAlign=middle;spacingTop=-1;spacingLeft=3;spacingRight=3;rotatable=0;labelPosition=right;points=[];portConstraint=eastwest;strokeColor=inherit;" vertex="1" parent="A31uFJUMOwdGZLYOwl7o-35">
          <mxGeometry y="100" width="160" height="40" as="geometry" />
        </mxCell>
        <mxCell id="A31uFJUMOwdGZLYOwl7o-39" value="Gym" style="swimlane;fontStyle=1;align=center;verticalAlign=top;childLayout=stackLayout;horizontal=1;startSize=26;horizontalStack=0;resizeParent=1;resizeParentMax=0;resizeLast=0;collapsible=1;marginBottom=0;whiteSpace=wrap;html=1;" vertex="1" parent="1">
          <mxGeometry x="230" y="440" width="160" height="150" as="geometry" />
        </mxCell>
        <mxCell id="A31uFJUMOwdGZLYOwl7o-40" value="+ ID: long&lt;br&gt;+ venues: List&amp;lt;Venue&amp;gt;&lt;br&gt;+ coaches: List&amp;lt;Coach&amp;gt;&lt;br&gt;+ members: List&amp;lt;Member&amp;gt;" style="text;strokeColor=none;fillColor=none;align=left;verticalAlign=top;spacingLeft=4;spacingRight=4;overflow=hidden;rotatable=0;points=[[0,0.5],[1,0.5]];portConstraint=eastwest;whiteSpace=wrap;html=1;" vertex="1" parent="A31uFJUMOwdGZLYOwl7o-39">
          <mxGeometry y="26" width="160" height="84" as="geometry" />
        </mxCell>
        <mxCell id="A31uFJUMOwdGZLYOwl7o-41" value="" style="line;strokeWidth=1;fillColor=none;align=left;verticalAlign=middle;spacingTop=-1;spacingLeft=3;spacingRight=3;rotatable=0;labelPosition=right;points=[];portConstraint=eastwest;strokeColor=inherit;" vertex="1" parent="A31uFJUMOwdGZLYOwl7o-39">
          <mxGeometry y="110" width="160" height="8" as="geometry" />
        </mxCell>
        <mxCell id="A31uFJUMOwdGZLYOwl7o-42" value="+ method(type): type" style="text;strokeColor=none;fillColor=none;align=left;verticalAlign=top;spacingLeft=4;spacingRight=4;overflow=hidden;rotatable=0;points=[[0,0.5],[1,0.5]];portConstraint=eastwest;whiteSpace=wrap;html=1;" vertex="1" parent="A31uFJUMOwdGZLYOwl7o-39">
          <mxGeometry y="118" width="160" height="32" as="geometry" />
        </mxCell>
        <mxCell id="A31uFJUMOwdGZLYOwl7o-43" value="Room" style="swimlane;fontStyle=1;align=center;verticalAlign=top;childLayout=stackLayout;horizontal=1;startSize=26;horizontalStack=0;resizeParent=1;resizeParentMax=0;resizeLast=0;collapsible=1;marginBottom=0;whiteSpace=wrap;html=1;" vertex="1" parent="1">
          <mxGeometry x="425" y="440" width="160" height="118" as="geometry" />
        </mxCell>
        <mxCell id="A31uFJUMOwdGZLYOwl7o-44" value="+ ID: long&lt;br&gt;+ location: String&lt;br&gt;+ capacity: int&lt;br&gt;+ tools: List&amp;lt;Tool&amp;gt;&lt;br&gt;" style="text;strokeColor=none;fillColor=none;align=left;verticalAlign=top;spacingLeft=4;spacingRight=4;overflow=hidden;rotatable=0;points=[[0,0.5],[1,0.5]];portConstraint=eastwest;whiteSpace=wrap;html=1;" vertex="1" parent="A31uFJUMOwdGZLYOwl7o-43">
          <mxGeometry y="26" width="160" height="84" as="geometry" />
        </mxCell>
        <mxCell id="A31uFJUMOwdGZLYOwl7o-45" value="" style="line;strokeWidth=1;fillColor=none;align=left;verticalAlign=middle;spacingTop=-1;spacingLeft=3;spacingRight=3;rotatable=0;labelPosition=right;points=[];portConstraint=eastwest;strokeColor=inherit;" vertex="1" parent="A31uFJUMOwdGZLYOwl7o-43">
          <mxGeometry y="110" width="160" height="8" as="geometry" />
        </mxCell>
        <mxCell id="A31uFJUMOwdGZLYOwl7o-47" value="Member" style="swimlane;fontStyle=1;align=center;verticalAlign=top;childLayout=stackLayout;horizontal=1;startSize=26;horizontalStack=0;resizeParent=1;resizeParentMax=0;resizeLast=0;collapsible=1;marginBottom=0;whiteSpace=wrap;html=1;" vertex="1" parent="1">
          <mxGeometry x="620" y="440" width="160" height="118" as="geometry" />
        </mxCell>
        <mxCell id="A31uFJUMOwdGZLYOwl7o-48" value="+ ID: long&lt;br&gt;+ name: String&lt;br&gt;+ isMembershipValid: boolean&lt;br&gt;+ pass: int" style="text;strokeColor=none;fillColor=none;align=left;verticalAlign=top;spacingLeft=4;spacingRight=4;overflow=hidden;rotatable=0;points=[[0,0.5],[1,0.5]];portConstraint=eastwest;whiteSpace=wrap;html=1;" vertex="1" parent="A31uFJUMOwdGZLYOwl7o-47">
          <mxGeometry y="26" width="160" height="84" as="geometry" />
        </mxCell>
        <mxCell id="A31uFJUMOwdGZLYOwl7o-49" value="" style="line;strokeWidth=1;fillColor=none;align=left;verticalAlign=middle;spacingTop=-1;spacingLeft=3;spacingRight=3;rotatable=0;labelPosition=right;points=[];portConstraint=eastwest;strokeColor=inherit;" vertex="1" parent="A31uFJUMOwdGZLYOwl7o-47">
          <mxGeometry y="110" width="160" height="8" as="geometry" />
        </mxCell>
        <mxCell id="A31uFJUMOwdGZLYOwl7o-51" value="1&lt;br&gt;5&lt;br&gt;10&lt;br&gt;" style="html=1;whiteSpace=wrap;align=left;" vertex="1" parent="1">
          <mxGeometry x="40" y="640" width="110" height="130" as="geometry" />
        </mxCell>
        <mxCell id="A31uFJUMOwdGZLYOwl7o-52" value="«enumeration»&lt;br&gt;&lt;b&gt;PassType&lt;/b&gt;" style="html=1;whiteSpace=wrap;" vertex="1" parent="1">
          <mxGeometry x="40" y="640" width="110" height="30" as="geometry" />
        </mxCell>
        <mxCell id="d_ZIA-anw9vC9_VNatUh-4" value="«enumeration»&lt;br&gt;&lt;b&gt;Tool&lt;/b&gt;" style="html=1;whiteSpace=wrap;" vertex="1" parent="1">
          <mxGeometry x="200" y="650" width="110" height="50" as="geometry" />
        </mxCell>
        <mxCell id="d_ZIA-anw9vC9_VNatUh-5" value="" style="html=1;whiteSpace=wrap;align=left;" vertex="1" parent="1">
          <mxGeometry x="200" y="700" width="110" height="50" as="geometry" />
        </mxCell>
        <mxCell id="d_ZIA-anw9vC9_VNatUh-6" value="MAT&lt;br&gt;BIKE&lt;br&gt;TRX&lt;br&gt;" style="text;html=1;align=left;verticalAlign=middle;resizable=0;points=[];autosize=1;strokeColor=none;fillColor=none;" vertex="1" parent="1">
          <mxGeometry x="200" y="690" width="50" height="60" as="geometry" />
        </mxCell>
      </root>
    </mxGraphModel>
  </diagram>
</mxfile>
